<?xml version="1.0" encoding="utf-8"?>
<!-- Generator: Adobe Illustrator 26.5.0, SVG Export Plug-In . SVG Version: 6.00 Build 0)  -->
<svg version="1.1" id="BOLTICON_copy_xA0_Image_00000104691566220088297550000001675101549249079710_"
	 xmlns="http://www.w3.org/2000/svg" xmlns:xlink="http://www.w3.org/1999/xlink" x="0px" y="0px" viewBox="0 0 403 403"
	 style="enable-background:new 0 0 403 403;" xml:space="preserve">
<g>
	<path d="M364.5,201.5c-0.4,45.6-17.1,84.4-48.9,116.6c-18.3,18.6-40.3,31.8-65.4,39c-16.4,4.7-33.3,7.3-50.5,6.9s-34-3.1-50.3-8.7
		s-31.3-13.6-45.1-23.9c-13.8-10.4-25.6-22.6-35.5-36.7s-17.3-29.4-22.4-45.9c-5-16.5-7.2-33.4-7-50.6
		c1.1-85.8,71.9-159.3,163.1-159.4C290.6,38.7,365,111.7,364.5,201.5z M178.8,309.9c0.2,0,0.3,0.1,0.4,0.1
		c27.3-44.6,54.7-89.3,82.2-134.2h-42.7c2.1-27.8,4.2-55.5,6.3-83.1c-0.2-0.1-0.2-0.1-0.4-0.1c-27.3,44.6-54.7,89.2-82,133.8
		c0.1,0.2,0.1,0.2,0.2,0.4H185C182.9,254.7,180.9,282.3,178.8,309.9z"/>
</g>
</svg>
