<?xml version="1.0" encoding="utf-8"?>
<!-- Generator: Adobe Illustrator 26.5.0, SVG Export Plug-In . SVG Version: 6.00 Build 0)  -->
<svg version="1.1" id="BOOST-3_xA0_Image_00000096750047428984088600000003645598180647297410_"
	 xmlns="http://www.w3.org/2000/svg" xmlns:xlink="http://www.w3.org/1999/xlink" x="0px" y="0px" viewBox="0 0 327.1 327.3"
	 style="enable-background:new 0 0 327.1 327.3;" xml:space="preserve">
<g>
	<g>
		<path d="M146.7,189.3c-0.5,0-0.8,0-1.2,0c-13.3,0-26.8,0-40.1,0c-0.3,0-0.5,0-0.8,0s-0.5-0.2-0.3-0.6c0.1-0.2,0.2-0.3,0.3-0.5
			c18.8-30.8,37.7-61.5,56.5-92.3c8.2-13.4,16.4-26.8,24.6-40.2c0.1-0.2,0.3-0.5,0.4-0.7c0.1-0.1,0.2-0.1,0.5-0.3
			c-0.4,5.7-0.8,11.2-1.3,16.7c-0.4,5.6-0.9,11.1-1.3,16.7c-0.4,5.5-0.8,11.1-1.3,16.6c-0.4,5.6-0.8,11.1-1.2,16.7
			c-0.4,5.5-0.8,11-1.3,16.7c14.2,0,28.5,0,42.7,0c-0.2,0.4-0.4,0.7-0.6,1c-11.8,19.3-23.7,38.8-35.6,58.1
			c-15.2,24.7-30.4,49.6-45.6,74.3c-0.1,0.2-0.3,0.5-0.4,0.7c-0.1,0.1-0.2,0.1-0.5,0.2c0.4-5.6,0.8-11.1,1.2-16.7
			c0.4-5.5,0.8-11.1,1.2-16.6c0.4-5.6,0.8-11.1,1.2-16.7c0.4-5.5,0.8-11.1,1.2-16.6C145.9,200.5,146.3,194.9,146.7,189.3z"/>
	</g>
</g>
</svg>
