<?xml version="1.0" encoding="utf-8"?>
<!-- Generator: Adobe Illustrator 26.5.0, SVG Export Plug-In . SVG Version: 6.00 Build 0)  -->
<svg version="1.1" id="BOLTICON_copy_xA0_Image_00000008846716556721461840000013087379680413003666_"
	 xmlns="http://www.w3.org/2000/svg" xmlns:xlink="http://www.w3.org/1999/xlink" x="0px" y="0px" viewBox="0 0 403 403"
	 style="enable-background:new 0 0 403 403;" xml:space="preserve">
<g>
	<path d="M365,201.6c-0.4,40.3-13.5,75.9-39.8,106.6c-0.7,0.8-0.5,1.4-0.2,2.2c4.5,14.3,9.1,28.6,13.4,43c1.6,5.3,2.7,10.7,3.8,16.1
		c1.4,6.8-3.7,11-9.4,11c-5,0-9.8-1.2-14.5-2.5c-14.1-4.1-28.2-8.5-42.4-12.8c-8.3-2.5-16.7-5.1-25-7.6c-0.6-0.2-1.4-0.2-2.1,0
		c-16.5,4.8-33.4,7-50.6,6.6c-36.2-1-68.6-12.8-97-35.3C83,314.5,68.7,296.9,58,276.4C50,261,44.7,244.7,42,227.7
		c-2.1-13-2.6-26-1.5-39.1c1.6-21.1,7.2-41.1,16.7-60c10.6-21.1,25.3-38.8,43.6-53.7c14.2-11.5,29.9-20.5,47.2-26.6
		c11.4-4,23.1-6.8,35.1-8c6.6-0.7,13.2-1.2,19.9-1.3c25.2,0,49.2,5.2,71.7,16.6c15,7.6,28.5,17.3,40.7,28.9
		c13.9,13.3,25,28.5,33.5,45.7c6.9,14.1,11.6,28.9,14.1,44.3C364.3,183.6,365,192.5,365,201.6z M185.6,227.1
		c-2.1,27.8-4.2,55.4-6.2,83c0.1,0,0.3,0.1,0.4,0.1c27.3-44.6,54.6-89.1,82.1-134c-14.4,0-28.4,0-42.6,0c2.1-27.7,4.2-55.3,6.3-83.2
		c-1.4,1.2-82,133.1-82.1,134.1C157.4,227.1,171.4,227.1,185.6,227.1z"/>
</g>
</svg>
